<svg xmlns="http://www.w3.org/2000/svg" width="33.667" height="28.464"><path data-name="Tracé 33" d="M4.552 15.19a14.377 14.377 0 011.73.41c.08.21-.75.31-1.65.17-1.95-.3-3.6-1.55-3.78-1.48-.52.23 1.69 3 4.91 3.45a7.649 7.649 0 002.03.01c.76-.11 1.34-.45 1.45-.34.05.05-.39.37-1.01.59-1.13.41-2.54.49-2.55.63-.03.36 1.23.79 2.38.77a7.427 7.427 0 003-.79c.69-.39 1.1-.58 1.16-.53.09.06-.26.32-.62.61-.99.83-2.62 1.65-2.56 1.85.14.58 2.26.17 2.94-.22-.17.36-.48.84-.63 1.11a1.373 1.373 0 01-.54.53c-1.04.72-2.74.85-3.27 1.37-.75.07-1.48.96-.65 1.48-.37-.7.35-.82.56-.86a.887.887 0 00.79.2c-1.1.9-2.08 2.8-.51 2.87-.66-.27-.27-.84-.02-1.14a3.528 3.528 0 002.09-1.36.569.569 0 00.25.76.982.982 0 01-.26 1.38 1.276 1.276 0 00.87-1.78 6.636 6.636 0 011.02-1.78 5.665 5.665 0 01.61-.66c.16-.13 1.84-1.26 1.72-.79-.32 1.17-2.5 2.8-2.3 3.27.23.54 2.68-1.1 2.77-1.04.21.16-1.86 2.52-1.54 2.97.36.5 2-.91 2.45-1.88.19-.4.21-.33.16-.02-.15.97-.92 3.23-.55 3.46.59.37 1.59-1.24 1.82-2.46.15-.8.14-.61.21-.23.08.43.98 2.98 1.63 2.54.37-.25-.28-2.75-.31-3.3 0-.13.05-.08.1 0 .48.81 2.37 2.28 2.55 1.46.08-.35-1.3-1.57-1.67-2.49-.05-.14.03-.09.1-.04.81.62 2.45 1.52 2.6.75.08-.42-1.87-1.58-2.42-2.52-.33-.57-.27-.46.05-.16a3.568 3.568 0 002.05.98 6.364 6.364 0 011.52 2c.11.26-.3 1.76 1.26 2.21a1.142 1.142 0 01-.54-1.09c.26-.37.43-.52.27-.94.65.66 1.69 1.26 2.13 1.03a.929.929 0 01.04 1.43c1.2-.3 1.01-2.23-.33-3.13.33.09.49.04.59-.19a1.02 1.02 0 01.61 1.12 1.384 1.384 0 00-1.14-1.95c-.74-.33-2.76-.63-3.27-1.19s-.6-1.47-1.08-2.17c1.14.79 3.28.83 3.29.26 0-.38-2.02-.93-2.95-1.79 2.93 1.31 5.94.4 5.87-.19-.04-.33-1.72 0-3.53-1.05a8.434 8.434 0 002.59.24c3.54-.33 6.33-3.43 5.89-3.87-.18-.18-2.17 1.33-3.88 1.68a2.8 2.8 0 01-1.82-.09c0-.13.89-.13 1.97-.52 2.09-.77 4.52-3.05 4.31-3.51-.13-.28-2.13.82-3.44 1.28-.57.2-1.14.19-1.13.06s.55-.3 1.15-.55c1.74-.75 3.95-2.75 3.52-3.15-.29-.27-2.08.99-3.66 1.13-.22.02-.2-.07-.11-.12.79-.41 3.37-2.23 3.02-2.93-.22-.46-1.78.56-3.05.7-.22.03-.12-.1-.06-.13.48-.3 2.69-2.47 2.27-2.93-.23-.25-1.47.9-2.85 1.17-.24.04-.21-.1-.13-.15.71-.45 2.21-2.37 1.79-2.67-.33-.23-1.74.83-2.59.67-.17-.03-.13-.09-.02-.13.64-.25 1.85-1.15 1.61-1.5-.09-.14-.76.13-1.27.14-1.12.02-5.85-.39-6.47.57-.76 1.19 1.81 1.37 2.2 2.11.89 1.7-.73 6.71-3.47 5.25-.26-.14-.29-.2-.47-.82a16.555 16.555 0 01-.5-2.26c.04-.1.29.02.45-.09.29-.19-.68-1.91-.73-2.61-.03-.4.04-.27.07-.22.13.21.6.65.75.42a28.008 28.008 0 00-.81-2.69c.46-.09.72-.08.74-.16.14-.44-1.44-.58-1.95-.81.59-.24.99-.61.87-.78s-1.49.43-3.22.52c-.79.04-1.35.27-1.55.66-2.28.14-3.41 1.56-2.01 2.39a1.553 1.553 0 00.14.08s-.19-.3-.11-.48c.2-.42 3.01-.41 2.69.09-.78.02-1.98 1.16-4.36.47-.58-.17-.23 0-.04.07 2.23.78 3.48-.09 4.13-.11.02 0 .04 0 .03.02-.15.46-1.99 1.08-1.86 1.5a7.969 7.969 0 001.92-.66c.03-.02.04-.02.05.02.39 1.51-1.63 3.79-1.51 3.93.2.24 1.01-.65.95-.58-.51.57-.72 1.93-1.24 2.22-.11.06-.11.13-.08.18s.24.13.28.2.02.07-.03.1c-2.18 1.18-5.47-2.81-4.94-5.45.17-.82 1.26-1.89 1.2-2.42-.11-.99-3.93-.27-4.77-.26-.74.02-1.22-.37-1.44-.3s.17.8.85 1.25c.23.15.49.31.47.39-.03.19-.39.12-.67.11-.67-.04-1.56-.61-1.67-.49-.53.55 1.79 2.05 1.75 2.28-.03.21-.43.28-.87.16-.8-.23-1.84-.98-2.02-.85-.48.35.65 1.65 1.59 2.3.31.21.89.48.89.54 0 .19-.57.23-1.11.06a9.734 9.734 0 00-2.18-.65c-.81.62 3.34 2.64 3.37 2.85.04.23-.55.22-1.18.04-1.03-.29-2.41-.97-2.52-.9-.39.23 1.06 1.97 2.77 2.73.68.3 1.48.53 1.51.57.13.27-.48.21-1.3.14a13.874 13.874 0 01-3.09-1.02c-.4.23 1.13 2.4 4.52 3.45zm10.51-13.75c-.21-.04 0-.11 0-.11.33.02 1.05-.06 1.23-.06s.25.06 0 .11-.23.06-.35.08a.374.374 0 01-.71.01c-.08-.02.06.01-.16-.02z" fill="#fff"/></svg>